<?xml version="1.0" encoding="UTF-8" standalone="no"?>
<svg
   xmlns:dc="http://purl.org/dc/elements/1.1/"
   xmlns:cc="http://creativecommons.org/ns#"
   xmlns:rdf="http://www.w3.org/1999/02/22-rdf-syntax-ns#"
   xmlns:svg="http://www.w3.org/2000/svg"
   xmlns="http://www.w3.org/2000/svg"
   xmlns:sodipodi="http://sodipodi.sourceforge.net/DTD/sodipodi-0.dtd"
   xmlns:inkscape="http://www.inkscape.org/namespaces/inkscape"
   width="170mm"
   height="170mm"
   viewBox="0 0 170 170"
   version="1.1"
   id="svg8"
   inkscape:version="1.0.1 (3bc2e813f5, 2020-09-07)"
   sodipodi:docname="testLogo.svg">
  <defs
     id="defs2">
    <mask
       id="mask961"
       maskUnits="userSpaceOnUse">
      <g
         id="g967"
         transform="translate(-53.902856,-33.412798)">
        <path
           id="path963"
           style="display:inline;fill:#ff6647;fill-opacity:1;fill-rule:evenodd;stroke-width:0.264583"
           d="m 234.02948,163.63163 c 0,25.89075 -58.66088,17.54367 -60,0 -0.76773,-10.05784 -4.61906,-18.40301 -5.95193,-20.81155 -6.91042,-12.48724 -22.08614,-18.65957 -34.04807,-19.18844 -13.31441,-0.58868 -23.37477,5.91531 -29.95097,12.99603 -10.644946,11.46163 -10.04903,27.00396 -10.04903,27.00396 0,0 -1.027732,-31.54273 24.02764,-52.28542 18.89102,-15.639381 33.62472,-17.714576 45.97236,-17.714575 38.65993,2e-6 70,31.340055 70,69.999995"
           inkscape:connector-curvature="0"
           sodipodi:nodetypes="csssscssc" />
        <circle
           style="display:inline;fill:#ff6647;fill-opacity:1;fill-rule:evenodd;stroke-width:0.264583"
           id="circle965"
           cx="204.02948"
           cy="163.63164"
           r="30.000002" />
      </g>
    </mask>
  </defs>
  <sodipodi:namedview
     fit-margin-bottom="0"
     fit-margin-right="0"
     fit-margin-left="2"
     fit-margin-top="0"
     inkscape:snap-nodes="false"
     inkscape:object-nodes="false"
     id="base"
     pagecolor="#ffffff"
     bordercolor="#666666"
     borderopacity="1.0"
     inkscape:pageopacity="0.0"
     inkscape:pageshadow="2"
     inkscape:zoom="2"
     inkscape:cx="133.6673"
     inkscape:cy="122.70539"
     inkscape:document-units="mm"
     inkscape:current-layer="g999"
     inkscape:document-rotation="0"
     showgrid="false"
     inkscape:snap-midpoints="false"
     inkscape:snap-smooth-nodes="false"
     inkscape:window-width="1070"
     inkscape:window-height="552"
     inkscape:window-x="676"
     inkscape:window-y="360"
     inkscape:window-maximized="0" />
  <metadata
     id="metadata5">
    <rdf:RDF>
      <cc:Work
         rdf:about="">
        <dc:format>image/svg+xml</dc:format>
        <dc:type
           rdf:resource="http://purl.org/dc/dcmitype/StillImage" />
        <dc:title></dc:title>
      </cc:Work>
    </rdf:RDF>
  </metadata>
  <g
     transform="translate(-40,-60)"
     inkscape:label="Layer 1"
     inkscape:groupmode="layer"
     id="layer1"
     sodipodi:insensitive="true"
     style="display:none">
    <circle
       style="fill:#ff0000;fill-rule:evenodd;stroke-width:0.264583"
       id="path10"
       cx="110.00604"
       cy="130"
       r="70" />
    <circle
       cy="130"
       cx="80.006042"
       id="path28-1"
       style="opacity:0.5;fill:#00ffff;stroke-width:0.264583"
       r="40" />
  </g>
  <g
     transform="translate(-40,-60)"
     inkscape:groupmode="layer"
     id="layer2"
     inkscape:label="Layer 2"
     style="display:none">
    <path
       sodipodi:nodetypes="csssscssc"
       inkscape:connector-curvature="0"
       d="m 180.00604,130 c 0,25.89074 -58.66088,17.54366 -60,0 -0.76773,-10.05785 -4.61906,-18.40302 -5.95193,-20.81155 C 107.14369,96.7012 91.967974,90.52888 80.006043,90 66.691628,89.41132 56.631274,95.91531 50.055075,102.99604 39.410126,114.45766 40.006042,130 40.006042,130 c 0,0 -1.027732,-31.54273 24.027638,-52.28542 C 82.924702,62.075194 97.658404,59.999999 110.00604,60 c 38.65993,2e-6 70,31.34006 70,70"
       style="fill:#00ff00;fill-rule:evenodd;stroke-width:0.264583"
       id="path10-1" />
    <circle
       r="30.000002"
       cy="130"
       cx="150.00604"
       id="path28"
       style="fill:#00ffff;stroke-width:0.264583" />
  </g>
  <g
     transform="translate(-40,-60)"
     style="display:inline"
     inkscape:groupmode="layer"
     id="layer4"
     inkscape:label="body">
    <path
       sodipodi:nodetypes="csssscssc"
       inkscape:connector-curvature="0"
       d="m 50.40484,95.696228 c 0,2.014393 -4.313471,1.364961 -4.411934,0 -0.05646,-0.782538 -0.339651,-1.431828 -0.43766,-1.61922 -0.508142,-0.971556 -1.624048,-1.451783 -2.503631,-1.492933 -0.979047,-0.04582 -1.718805,0.460233 -2.202369,1.011138 -0.782743,0.891759 -0.738922,2.101015 -0.738922,2.101015 0,0 -0.07554,-2.454145 1.766806,-4.068005 1.389093,-1.2168 2.472502,-1.37826 3.380447,-1.37826 2.842751,0 5.147263,2.438376 5.147263,5.446265"
       style="fill:#ff6647;fill-opacity:1;fill-rule:evenodd;stroke-width:0.0200125"
       id="path10-1-1" />
    <ellipse
       cy="95.69622"
       cx="48.198868"
       id="path28-0"
       style="fill:#ff6647;fill-opacity:1;fill-rule:evenodd;stroke-width:0.0200125"
       rx="2.2059672"
       ry="2.3341124" />
  </g>
  <g
     transform="translate(-40,-60)"
     inkscape:label="fins"
     id="layer5"
     inkscape:groupmode="layer">
    <path
       sodipodi:nodetypes="sscss"
       inkscape:connector-curvature="0"
       d="m 45.862448,96.330812 c 0,0.334069 -0.301254,0.604874 -0.672871,0.604874 -0.371608,0 -0.848779,-0.260267 -1.165435,-0.604874 0.398746,-0.334062 0.793827,-0.604881 1.165435,-0.604881 0.371617,0 0.672871,0.270819 0.672871,0.604881 z"
       style="opacity:1;fill:#ff6647;fill-opacity:1;fill-rule:evenodd;stroke-width:0.018755"
       id="path865" />
    <path
       id="path865-1"
       style="opacity:1;fill:#ff6647;fill-opacity:1;fill-rule:evenodd;stroke-width:0.0127489"
       d="m 45.724459,95.342981 c -0.08428,0.229663 -0.328543,0.343551 -0.545592,0.254382 -0.21705,-0.08917 -0.430099,-0.3826 -0.528124,-0.695488 0.317181,-0.13398 0.616257,-0.225353 0.833306,-0.136184 0.217049,0.08917 0.324687,0.347628 0.24041,0.57729 z"
       inkscape:connector-curvature="0"
       sodipodi:nodetypes="sscss" />
    <path
       sodipodi:nodetypes="sscss"
       inkscape:connector-curvature="0"
       d="m 46.214043,97.143449 c 0.131381,0.203387 0.08207,0.480972 -0.110159,0.619988 -0.192225,0.139022 -0.541418,0.159069 -0.840748,0.06772 0.0749,-0.352566 0.172728,-0.665247 0.364953,-0.804263 0.192224,-0.139022 0.454565,-0.08684 0.585954,0.116559 z"
       style="opacity:1;fill:#ff6647;fill-opacity:1;fill-rule:evenodd;stroke-width:0.0127489"
       id="path865-1-7" />
    <path
       id="path904"
       style="opacity:1;fill:#ff6647;fill-opacity:1;fill-rule:evenodd;stroke-width:0.0182708"
       d="m 50.594909,95.823578 c 7.7e-4,-0.317036 0.30275,-0.573473 0.674358,-0.572766 0.371617,6.48e-4 0.848144,0.24862 1.163941,0.576259 -0.399581,0.316278 -0.795322,0.572539 -1.166938,0.571833 -0.371609,-6.48e-4 -0.672195,-0.25829 -0.671361,-0.575326 z"
       inkscape:connector-curvature="0"
       sodipodi:nodetypes="sscss" />
    <path
       sodipodi:nodetypes="sscss"
       inkscape:connector-curvature="0"
       d="m 50.386727,96.714475 c 0.111064,-0.216531 0.366988,-0.296808 0.571633,-0.179303 0.204645,0.117511 0.380895,0.437094 0.440722,0.760592 -0.330651,0.09045 -0.638251,0.141051 -0.842896,0.02353 -0.204645,-0.117505 -0.280509,-0.388297 -0.169459,-0.604835 z"
       style="opacity:1;fill:#ff6647;fill-opacity:1;fill-rule:evenodd;stroke-width:0.0127489"
       id="path906" />
    <path
       id="path908"
       style="opacity:1;fill:#ff6647;fill-opacity:1;fill-rule:evenodd;stroke-width:0.0127489"
       d="m 50.539584,94.942532 c -0.122849,-0.209279 -0.0621,-0.484311 0.13569,-0.614298 0.197791,-0.129988 0.547477,-0.133844 0.842745,-0.02871 -0.08938,0.348762 -0.200073,0.656607 -0.397864,0.786595 -0.197783,0.129988 -0.457714,0.06571 -0.580571,-0.143572 z"
       inkscape:connector-curvature="0"
       sodipodi:nodetypes="sscss" />
  </g>
  <g
     transform="translate(-40,-60)"
     style="display:none"
     inkscape:label="color"
     id="layer6"
     inkscape:groupmode="layer">
    <g
       style="display:inline"
       inkscape:label="color copy copy"
       id="g979"
       inkscape:groupmode="layer">
      <ellipse
         transform="translate(1.9171328,28.117947)"
         mask="url(#mask961)"
         ry="53.976032"
         rx="57.300121"
         cy="131.17813"
         cx="97.536789"
         id="ellipse977"
         style="opacity:1;fill:#9add11;fill-opacity:1;fill-rule:evenodd;stroke-width:0.561727" />
    </g>
    <g
       style="display:inline"
       inkscape:groupmode="layer"
       id="g983"
       inkscape:label="color copy copy copy">
      <ellipse
         transform="translate(1.9171328,28.117947)"
         style="opacity:1;fill:#9add11;fill-opacity:1;fill-rule:evenodd;stroke-width:0.561727"
         id="ellipse981"
         cx="97.536789"
         cy="131.17813"
         rx="57.300121"
         ry="53.976032"
         mask="url(#mask961)" />
    </g>
    <g
       style="display:inline"
       inkscape:groupmode="layer"
       id="g975"
       inkscape:label="color copy">
      <ellipse
         transform="translate(1.9171328,28.117947)"
         style="opacity:1;fill:#9add11;fill-opacity:1;fill-rule:evenodd;stroke-width:0.561727"
         id="ellipse973"
         cx="97.536789"
         cy="131.17813"
         rx="57.300121"
         ry="53.976032"
         mask="url(#mask961)" />
    </g>
    <ellipse
       transform="translate(1.9171328,28.117947)"
       mask="url(#mask961)"
       ry="53.976032"
       rx="57.300121"
       cy="131.17813"
       cx="97.536789"
       id="path933"
       style="opacity:1;fill:#9add11;fill-opacity:1;fill-rule:evenodd;stroke-width:0.561727" />
  </g>
  <g
     transform="translate(-40,-60)"
     inkscape:groupmode="layer"
     id="g999"
     inkscape:label="yello"
     style="display:inline">
    <ellipse
       transform="matrix(0.07353224,0,0,0.07780374,37.168586,85.581737)"
       style="opacity:1;fill:#ffff00;fill-opacity:1;fill-rule:evenodd;stroke-width:0.561727"
       id="ellipse997"
       cx="97.536789"
       cy="131.17813"
       rx="57.300121"
       ry="53.976032"
       mask="url(#mask961)" />
  </g>
  <g
     transform="translate(-40,-60)"
     style="display:inline"
     inkscape:label="eyes"
     id="layer3"
     inkscape:groupmode="layer">
    <ellipse
       cy="95.85183"
       cx="47.095444"
       id="path847"
       style="opacity:1;fill:#000000;fill-opacity:1;fill-rule:evenodd;stroke-width:0.0200125"
       rx="0.36766121"
       ry="0.38901868" />
    <ellipse
       style="opacity:1;fill:#000000;fill-opacity:1;fill-rule:evenodd;stroke-width:0.0200125"
       id="path847-3"
       cx="49.448479"
       cy="95.85183"
       rx="0.36766121"
       ry="0.38901868" />
  </g>
</svg>
